<svg width="18" height="18" viewBox="0 0 18 18" fill="none" xmlns="http://www.w3.org/2000/svg">
<g id="crown">
<path id="Vector" d="M16.2008 5.94099C16.2008 5.46665 15.602 5.2589 15.3082 5.6313L12.6387 9.01488C12.425 9.2858 12.0076 9.26388 11.8234 8.97206L9.4236 5.16991C9.22742 4.85907 8.77415 4.85907 8.57796 5.16991L6.17818 8.97206C5.994 9.26388 5.57656 9.2858 5.36282 9.01488L2.69332 5.6313C2.39952 5.2589 1.80078 5.46665 1.80078 5.94099V15.7C1.80078 15.9761 2.02464 16.2 2.30078 16.2H15.7008C15.9769 16.2 16.2008 15.9761 16.2008 15.7V5.94099Z" fill="#C6C9D6"/>
<circle id="Ellipse 27" cx="1.80039" cy="3.59922" r="0.9" fill="#C6C9D6"/>
<circle id="Ellipse 28" cx="8.99961" cy="2.70078" r="0.9" fill="#C6C9D6"/>
<circle id="Ellipse 29" cx="16.2008" cy="3.59922" r="0.9" fill="#C6C9D6"/>
</g>
</svg>
