<svg width="22" height="22" viewBox="0 0 22 22" fill="none" xmlns="http://www.w3.org/2000/svg">
<g id="edit-05">
<path id="Icon" d="M10.125 3.99996H6.45C4.97986 3.99996 4.24479 3.99996 3.68327 4.28606C3.18935 4.53773 2.78778 4.9393 2.53611 5.43323C2.25 5.99475 2.25 6.72982 2.25 8.19996V15.55C2.25 17.0201 2.25 17.7552 2.53611 18.3167C2.78778 18.8106 3.18935 19.2122 3.68327 19.4638C4.24479 19.75 4.97986 19.75 6.45 19.75H13.8C15.2701 19.75 16.0052 19.75 16.5667 19.4638C17.0607 19.2122 17.4622 18.8106 17.7139 18.3167C18 17.7552 18 17.0201 18 15.55V11.875M7.49998 14.5H8.9652C9.39324 14.5 9.60725 14.5 9.80866 14.4516C9.98722 14.4087 10.1579 14.338 10.3145 14.2421C10.4911 14.1339 10.6424 13.9825 10.9451 13.6799L19.3125 5.31246C20.0374 4.58758 20.0374 3.41233 19.3125 2.68745C18.5876 1.96258 17.4124 1.96258 16.6875 2.68745L8.32008 11.0549C8.01741 11.3575 7.86608 11.5089 7.75786 11.6855C7.66191 11.842 7.5912 12.0127 7.54833 12.1913C7.49998 12.3927 7.49998 12.6067 7.49998 13.0348V14.5Z" stroke="#AEB2C1" stroke-width="2" stroke-linecap="round" stroke-linejoin="round"/>
</g>
</svg>
